<svg id="グループ_24" data-name="グループ 24" xmlns="http://www.w3.org/2000/svg" xmlns:xlink="http://www.w3.org/1999/xlink" width="200" height="84.095" viewBox="0 0 200 84.095">
  <defs>
    <clipPath id="clip-path">
      <rect id="長方形_1" data-name="長方形 1" width="200" height="84.095" fill="#fff"/>
    </clipPath>
  </defs>
  <g id="グループ_1" data-name="グループ 1" clip-path="url(#clip-path)">
    <path id="パス_1" data-name="パス 1" d="M3.5,46c1.966,0,5.17.145,7.281.145,2.84,0,7.864-.292,9.611-.292,1.675,0,2.257.365,2.257.875,0,.655-.873,1.164-1.6,1.383-3.933.946-4.515,2.039-4.588,2.913-.51,3.641-.51,11-.51,21.771,0,5.024.073,10.994.364,13.47.146,1.749,2.33,2.767,2.621,2.84a47.147,47.147,0,0,0,6.044.365,29.651,29.651,0,0,0,5.242-.365,4.363,4.363,0,0,0,2.258-1.019,28.625,28.625,0,0,0,4.588-5.68,2.973,2.973,0,0,1,1.966-1.458c.51,0,.582.8.292,1.967-.8,2.549-1.894,6.554-2.331,8.593a3.384,3.384,0,0,1-1.674,1.238c-1.093,0-7.573-.511-22.355-.511-3.495,0-8.519.438-10.776.438C.874,92.678,0,92.386,0,91.731c0-.511.655-1.166,1.821-1.385,4-.727,4.661-2.038,5.025-5.242.145-1.819.364-9.465.364-19.951,0-7.062,0-9.9-.073-12.305-.073-2.476-.437-3.641-3.786-4.442-1.385-.363-2.04-.873-2.04-1.384C1.311,46.3,2.185,46,3.5,46" transform="translate(0 -9.092)" fill="#fff"/>
    <path id="パス_2" data-name="パス 2" d="M76.817,70.678c.875,1.166,1.6,2.986,1.6,6.263,0,2.839-.292,11.5-.292,12.3a2.7,2.7,0,0,0,2.695,2.914,15.1,15.1,0,0,0,2.548-.875c.219-.145.292-.073.437.072a2.867,2.867,0,0,1,.219,1.021c0,1.383-3.422,4.951-7.5,4.951-2.112,0-4.369-.656-5.461-3.495-.073-.291-.509-.436-.655-.291A38.37,38.37,0,0,1,64.658,96.6a11.348,11.348,0,0,1-3.2.582c-2.695,0-5.607-3.277-5.607-7.354a6.74,6.74,0,0,1,1.311-3.713,5.869,5.869,0,0,1,2.622-1.747c1.6-.657,8.228-2.477,9.9-2.987.874-.29,1.31-.8,1.31-1.091.073-.655.219-4.659.146-5.607a4.968,4.968,0,0,0-4.879-4.661,4.107,4.107,0,0,0-2.33.51c-.291.145-.437.874-.437,3.349a.924.924,0,0,1-.291.656,38.012,38.012,0,0,1-6.408,2.913,1.16,1.16,0,0,1-.947-1.019c0-2.111,1.6-4.078,6.117-6.99a18.375,18.375,0,0,1,7.281-2.7,8.465,8.465,0,0,1,7.572,3.932M69.974,91.939a2.227,2.227,0,0,0,.655-1.383c.145-1.018.292-4.078.292-6.48,0-.291-.292-.73-.51-.73a17.406,17.406,0,0,0-5.9,1.894c-.873.655-1.31,1.02-1.31,2.913a4.5,4.5,0,0,0,4,4.66,6.8,6.8,0,0,0,2.767-.875" transform="translate(-11.072 -13.233)" fill="#fff"/>
    <path id="パス_3" data-name="パス 3" d="M134.489,66.046c-.22.073-.145.656.073.656,5.025,2.111,8.737,5.751,8.737,12.014,0,4.806-2.694,8.228-6.189,10.558-3.5,2.474-10.121,3.2-13.035,3.2-2.039,0-10.048-.145-13.325-.217-2.622-.073-4.368.072-5.534.072-1.31,0-2.331-.51-2.331-1.165s1.238-1.091,2.04-1.237c4.441-.875,4.733-1.966,5.023-4.442.146-1.529.583-8.81.583-23.228a81.84,81.84,0,0,0-.437-10.921c-.365-1.6-.8-2.186-4.588-2.914-.946-.145-1.892-.583-1.892-1.384,0-.582,1.091-.946,2.037-.946h4.807c2.329,0,11.212-.51,14.2-.51,4.223,0,8.3.8,10.485,2.184a10.051,10.051,0,0,1,5.1,8.957c0,5.534-3.787,7.937-5.753,9.32M122.4,48.207a14.293,14.293,0,0,0-2.549.437,2.438,2.438,0,0,0-.655,1.164c-.147,1.166-.293,3.277-.293,15.511,0,.363.365.946.8.946,2.622,0,6.773-.437,8.519-1.748a8.262,8.262,0,0,0,3.5-6.917c0-6.043-4.077-9.392-9.32-9.392m5.9,21.7a12.64,12.64,0,0,0-6.263-1.385,5.484,5.484,0,0,0-2.476.51c-.218.22-.581.583-.581,3.422-.075,1.894.145,10.631.29,12.817a5.275,5.275,0,0,0,.946,2.329c1.239,1.311,3.277,2.477,4.588,2.477,4.661,0,8.885-4.661,8.885-10.7a10.519,10.519,0,0,0-5.388-9.465" transform="translate(-20.398 -9.037)" fill="#fff"/>
    <path id="パス_4" data-name="パス 4" d="M177.615,70.678c.876,1.166,1.6,2.986,1.6,6.263,0,2.839-.293,11.5-.293,12.3a2.7,2.7,0,0,0,2.7,2.914,15.081,15.081,0,0,0,2.548-.875c.219-.145.292-.073.437.072a2.847,2.847,0,0,1,.218,1.021c0,1.383-3.422,4.951-7.5,4.951-2.111,0-4.368-.656-5.461-3.495-.073-.291-.508-.436-.656-.291a38.366,38.366,0,0,1-5.751,3.058,11.359,11.359,0,0,1-3.205.582c-2.693,0-5.607-3.277-5.607-7.354a6.74,6.74,0,0,1,1.311-3.713,5.865,5.865,0,0,1,2.622-1.747c1.6-.657,8.228-2.477,9.9-2.987.875-.29,1.31-.8,1.31-1.091.073-.655.22-4.659.146-5.607a4.968,4.968,0,0,0-4.879-4.661,4.11,4.11,0,0,0-2.331.51c-.29.145-.436.874-.436,3.349a.924.924,0,0,1-.29.656,38.069,38.069,0,0,1-6.408,2.913,1.159,1.159,0,0,1-.948-1.019c0-2.111,1.6-4.078,6.117-6.99a18.384,18.384,0,0,1,7.283-2.7,8.463,8.463,0,0,1,7.57,3.932m-6.844,21.261a2.223,2.223,0,0,0,.655-1.383c.146-1.018.293-4.078.293-6.48,0-.291-.293-.73-.511-.73a17.408,17.408,0,0,0-5.9,1.894c-.873.655-1.309,1.02-1.309,2.913a4.5,4.5,0,0,0,4,4.66,6.791,6.791,0,0,0,2.767-.875" transform="translate(-31.056 -13.233)" fill="#fff"/>
    <path id="パス_5" data-name="パス 5" d="M196.919,65.459c2.985-.583,7.572-2.33,8.737-2.622.365,0,.73.583.73.8-.146,2.476-.365,12.234-.365,16.457,0,2.258.074,4.8.145,7.354.074,2.186.948,2.477,2.841,3.059,1.09.363,1.6.8,1.6,1.383s-1.021.946-2.039.946c-.508,0-4.441-.218-6.044-.218-2.329,0-5.825.29-7.063.29-1.165,0-2.04-.435-2.04-.945s.51-.874,1.893-1.311c1.749-.51,2.549-1.384,2.695-2.112.29-1.02.437-6.189.437-11.359,0-1.528,0-5.68-.147-6.553-.071-.582-.946-1.31-2.474-2.621-.438-.438-.874-.8-.874-1.166,0-.583.8-1.163,1.966-1.383m9.611-13.18a4.887,4.887,0,0,1-4.368,4.442,4.985,4.985,0,0,1-2.914-1.238,4.393,4.393,0,0,1-1.384-3.2,5.27,5.27,0,0,1,1.166-3.2,5.546,5.546,0,0,1,3.64-1.31c2.549,0,3.86,2.839,3.86,4.513" transform="translate(-38.347 -9.47)" fill="#fff"/>
    <path id="パス_6" data-name="パス 6" d="M240.315,69.8a8.846,8.846,0,0,1,2.767,6.408c0,.509-.728,1.748-1.6,1.748H225.605a.82.82,0,0,0-.8.509,9.349,9.349,0,0,0-.29,2.621,13.828,13.828,0,0,0,2.257,6.772,10.224,10.224,0,0,0,8.081,3.642c3.06,0,5.171-.728,6.553-2.549.293-.437.656-.873.948-.873s.655.508.655.946a4.056,4.056,0,0,1-.582,1.821,12.927,12.927,0,0,1-11.651,6.334c-8.373,0-13.471-6.334-13.471-14.635a15.766,15.766,0,0,1,9.248-14.417,14.329,14.329,0,0,1,5.971-1.385,11.337,11.337,0,0,1,7.791,3.059m-15.073,5.17a.612.612,0,0,0,.51.728c1.894.072,4.15,0,7.79,0a2.415,2.415,0,0,0,2.549-2.475c0-2.04-2.038-4.441-4.077-4.441-3.058,0-5.9,2.911-6.772,6.188" transform="translate(-43.082 -13.233)" fill="#fff"/>
    <path id="パス_7" data-name="パス 7" d="M62.429,13.045a11.934,11.934,0,0,1-3.929.7,6.582,6.582,0,0,1-4.783-1.689,6.581,6.581,0,0,1-1.785-4.766C51.951,3.478,54.571.686,58.861.686a7.922,7.922,0,0,1,3.189.588l-.4,1.348a6.628,6.628,0,0,0-2.829-.55,4.785,4.785,0,0,0-5.144,5.144c0,3.247,1.955,5.164,4.936,5.164a5.351,5.351,0,0,0,2.2-.343V8.222h-2.6V6.893h4.214Z" transform="translate(-10.296 -0.136)" fill="#fff"/>
    <path id="パス_8" data-name="パス 8" d="M68.031,8.165c0-1.082-.019-2.012-.075-2.865h1.461l.058,1.8h.075a2.756,2.756,0,0,1,2.544-2.012,1.786,1.786,0,0,1,.475.058V6.723A2.488,2.488,0,0,0,72,6.666a2.344,2.344,0,0,0-2.24,2.145,4.65,4.65,0,0,0-.076.779v4.9H68.031Z" transform="translate(-13.473 -1.009)" fill="#fff"/>
    <path id="パス_9" data-name="パス 9" d="M81.978,12.286a12.86,12.86,0,0,0,.152,2.2H80.612l-.133-1.158h-.058A3.42,3.42,0,0,1,77.612,14.7,2.617,2.617,0,0,1,74.8,12.057c0-2.221,1.973-3.435,5.523-3.415V8.45a1.894,1.894,0,0,0-2.088-2.125,4.582,4.582,0,0,0-2.392.683l-.38-1.1a5.713,5.713,0,0,1,3.019-.815c2.809,0,3.492,1.916,3.492,3.757ZM80.364,9.8c-1.822-.037-3.891.286-3.891,2.069a1.479,1.479,0,0,0,1.575,1.6,2.287,2.287,0,0,0,2.222-1.538,1.767,1.767,0,0,0,.094-.532Z" transform="translate(-14.83 -1.009)" fill="#fff"/>
    <path id="パス_10" data-name="パス 10" d="M86.414,7.785c0-.949-.018-1.726-.075-2.485H87.82l.094,1.518h.039a3.38,3.38,0,0,1,3.037-1.726c1.272,0,3.246.758,3.246,3.909v5.487H92.565v-5.3c0-1.481-.551-2.714-2.126-2.714A2.372,2.372,0,0,0,88.2,8.183a2.411,2.411,0,0,0-.114.779v5.524H86.414Z" transform="translate(-17.117 -1.009)" fill="#fff"/>
    <path id="パス_11" data-name="パス 11" d="M106.76,0V11.106c0,.815.018,1.745.075,2.372h-1.5l-.076-1.6h-.038a3.4,3.4,0,0,1-3.132,1.8c-2.221,0-3.93-1.879-3.93-4.669-.019-3.057,1.879-4.936,4.119-4.936a3.074,3.074,0,0,1,2.773,1.405h.037V0ZM105.09,8.031a2.948,2.948,0,0,0-.075-.7A2.458,2.458,0,0,0,102.6,5.391c-1.726,0-2.752,1.519-2.752,3.551,0,1.859.912,3.4,2.715,3.4a2.512,2.512,0,0,0,2.449-1.992,2.912,2.912,0,0,0,.075-.722Z" transform="translate(-19.461)" fill="#fff"/>
    <path id="パス_12" data-name="パス 12" d="M112.978,10.2a2.944,2.944,0,0,0,3.152,3.19,6.043,6.043,0,0,0,2.543-.475l.285,1.2a7.386,7.386,0,0,1-3.057.588,4.281,4.281,0,0,1-4.518-4.651c0-2.771,1.634-4.954,4.309-4.954,3,0,3.8,2.639,3.8,4.328a6.351,6.351,0,0,1-.058.778Zm4.9-1.2a2.38,2.38,0,0,0-2.317-2.714A2.769,2.769,0,0,0,113,9Z" transform="translate(-22.082 -1.009)" fill="#fff"/>
    <path id="パス_13" data-name="パス 13" d="M139.871,8.028c-.1-1.785-.209-3.93-.19-5.524h-.057c-.436,1.5-.968,3.113-1.614,4.859l-2.258,6.207H134.5L132.43,7.477c-.607-1.8-1.12-3.453-1.481-4.972h-.039c-.037,1.594-.132,3.739-.247,5.656l-.342,5.487h-1.575l.892-12.8h2.107l2.183,6.189c.532,1.577.968,2.98,1.291,4.309h.058c.322-1.291.777-2.7,1.348-4.309L138.9.852h2.107l.8,12.8h-1.614Z" transform="translate(-25.525 -0.169)" fill="#fff"/>
    <path id="パス_14" data-name="パス 14" d="M154.336,12.286a12.867,12.867,0,0,0,.151,2.2H152.97l-.133-1.158h-.058a3.421,3.421,0,0,1-2.809,1.366,2.617,2.617,0,0,1-2.808-2.639c0-2.221,1.973-3.435,5.522-3.415V8.45a1.894,1.894,0,0,0-2.089-2.125,4.586,4.586,0,0,0-2.391.683l-.38-1.1a5.717,5.717,0,0,1,3.019-.815c2.81,0,3.493,1.916,3.493,3.757ZM152.722,9.8c-1.822-.037-3.892.286-3.892,2.069a1.479,1.479,0,0,0,1.576,1.6,2.288,2.288,0,0,0,2.222-1.538,1.791,1.791,0,0,0,.094-.532Z" transform="translate(-29.175 -1.009)" fill="#fff"/>
    <path id="パス_15" data-name="パス 15" d="M161.074,1.873a1.034,1.034,0,0,1-2.068,0A1.018,1.018,0,0,1,160.049.828a.992.992,0,0,1,1.025,1.045m-1.86,2.581h1.671v9.187h-1.671Z" transform="translate(-31.524 -0.164)" fill="#fff"/>
    <path id="パス_16" data-name="パス 16" d="M164.7,12.777a4.355,4.355,0,0,0,2.2.665c1.215,0,1.784-.606,1.784-1.366,0-.8-.475-1.234-1.708-1.689-1.652-.589-2.43-1.5-2.43-2.6,0-1.479,1.195-2.694,3.17-2.694a4.579,4.579,0,0,1,2.258.568l-.418,1.215a3.581,3.581,0,0,0-1.879-.53c-.988,0-1.538.569-1.538,1.252,0,.758.55,1.1,1.746,1.556,1.6.608,2.412,1.405,2.412,2.772,0,1.613-1.254,2.771-3.436,2.771a5.243,5.243,0,0,1-2.581-.644Z" transform="translate(-32.571 -1.009)" fill="#fff"/>
    <path id="パス_17" data-name="パス 17" d="M182.5,9.818a4.49,4.49,0,0,1-4.576,4.878,4.367,4.367,0,0,1-4.4-4.726c0-3.075,2.012-4.879,4.555-4.879,2.64,0,4.424,1.917,4.424,4.727m-7.289.094c0,2.012,1.158,3.53,2.79,3.53,1.595,0,2.791-1.5,2.791-3.567,0-1.559-.779-3.53-2.752-3.53s-2.829,1.821-2.829,3.567" transform="translate(-34.402 -1.009)" fill="#fff"/>
    <path id="パス_18" data-name="パス 18" d="M187.2,7.785c0-.949-.02-1.726-.075-2.485h1.48l.095,1.518h.038a3.378,3.378,0,0,1,3.036-1.726c1.272,0,3.246.758,3.246,3.909v5.487h-1.669v-5.3c0-1.481-.55-2.714-2.127-2.714a2.373,2.373,0,0,0-2.239,1.706,2.412,2.412,0,0,0-.113.779v5.524H187.2Z" transform="translate(-37.099 -1.009)" fill="#fff"/>
  </g>
</svg>
